<?xml version="1.0" encoding="utf-8"?>
<!-- Generator: Adobe Illustrator 23.0.0, SVG Export Plug-In . SVG Version: 6.00 Build 0)  -->
<svg version="1.1" id="Layer_1" xmlns="http://www.w3.org/2000/svg" xmlns:xlink="http://www.w3.org/1999/xlink" x="0px" y="0px"
	 viewBox="0 0 1174.5 391.5" style="enable-background:new 0 0 1174.5 391.5;" xml:space="preserve">
<style type="text/css">
	.st0{fill:#F6DDB4;}
</style>
<path class="st0" d="M175.8,159.5c-16.8,0-31.9,7.2-42.4,18.6v-0.9v-62.4h-18c0,0,0,0,0,157.2h18v-15.5
	c10.6,11.4,25.7,18.6,42.4,18.6c31.9,0,57.8-25.9,57.8-57.8C233.5,185.3,207.7,159.5,175.8,159.5z M175.8,259.5
	c-23.2,0-42.1-18.7-42.4-41.8v-1.2c0.3-23.2,19.2-41.8,42.4-41.8c23.4,0,42.4,19,42.4,42.4S199.2,259.5,175.8,259.5z"/>
<path class="st0" d="M637.6,160.6c-31.9,0-57.8,25.9-57.8,57.8c0,31.9,25.9,57.8,57.8,57.8c31.9,0,57.8-25.9,57.8-57.8
	C695.3,186.5,669.5,160.6,637.6,160.6z M637.6,260.8c-23.4,0-42.4-19-42.4-42.4s19-42.4,42.4-42.4s42.4,19,42.4,42.4
	S661,260.8,637.6,260.8z"/>
<path class="st0" d="M351,161.7v16.4c-10.6-11.4-25.7-18.6-42.4-18.6c-31.9,0-57.8,25.9-57.8,57.8c0,31.9,25.9,57.8,57.8,57.8
	c16.8,0,31.9-7.2,42.4-18.6V275h16.9V161.7H351z M308.5,259.7c-23.4,0-42.4-19-42.4-42.4s19-42.4,42.4-42.4s42.4,19,42.4,42.4
	S332,259.7,308.5,259.7z"/>
<path class="st0" d="M418.7,182.3v-20.6h-16.9V275h16.9v-66.5c0,0,13-44.4,53.9-23.4l7.3-15.6C479.9,169.5,442.2,145,418.7,182.3z"
	/>
<path class="st0" d="M512.7,182.3v-20.6h-16.9V275h16.9v-66.5c0,0,13-44.4,53.9-23.4l7.3-15.6C573.9,169.6,536.2,145,512.7,182.3z"
	/>
<path class="st0" d="M1023.4,163.1c-34-8.7-49.3,10.7-52.3,15.1v-17.9h-16.9v113.3H971v-62.4c0,0,6.2-32.4,34.2-32.5
	c0.3,0,0.7,0,1,0c28.8,0.7,30.8,15.6,34.2,32.5v62.4h16.9v-62.4C1057.3,211.3,1061.6,172.9,1023.4,163.1z"/>
<path class="st0" d="M952.1,142.1l-11.9-11.4l-25.5,25.5c0,0,0-0.1-0.1-0.1l-4.1,4.2l-9.4,9.4c0,0.1,0.1,0.2,0.1,0.3l0,0
	c1.1,2.7,2,5.6,2.7,8.5c0,0,0,0,0,0c0.1,0.5,0.2,0.9,0.3,1.4c0.1,0.6,0.3,1.2,0.4,1.8c0.7,3.9,1.1,7.8,1.1,11.9
	c0,35.5-28.8,64.3-64.3,64.3s-64.3-28.8-64.3-64.3c0-35.5,28.8-64.3,64.3-64.3c9.5,0,18.5,2.1,26.6,5.7l13.3-13.9
	c-0.1-0.1-0.3-0.1-0.4-0.2L905,96.9l-12.9-12.4l-28.2,29.4c-7.5-2.2-15.3-3.4-23.5-3.4c-46,0-83.2,37.3-83.2,83.2
	c0,46,37.3,83.2,83.2,83.2s83.2-37.3,83.2-83.2c0-6.7-0.8-13.3-2.3-19.6L952.1,142.1z"/>
</svg>
