<?xml version="1.0" encoding="utf-8"?>
<!-- Generator: Adobe Illustrator 23.0.0, SVG Export Plug-In . SVG Version: 6.00 Build 0)  -->
<svg version="1.1" id="Layer_1" xmlns="http://www.w3.org/2000/svg" xmlns:xlink="http://www.w3.org/1999/xlink" x="0px" y="0px"
	 viewBox="0 0 110 135" style="enable-background:new 0 0 110 135;" xml:space="preserve">
<style type="text/css">
	.st0{fill:#FF0303;}
</style>
<g>
	<path d="M46.2,67.1c-1.2-0.7-2.4-0.9-3.7-0.5c-1.1,0.4-2,1.1-2.9,1.8c-2.1,1.6-4.2,3.3-6.3,4.9c-1.4,1.1-1.6,2.3-0.8,3.4
		c0.4,0.5,1,0.9,1.6,1c3.4,0.7,6.7,1.7,9.9,2.9c0.6,0.2,1.3,0.4,2,0.4c1.3,0,2.1-1.1,1.5-2.4c-0.3-0.8-0.9-1.4-1.6-2
		c-0.8-0.6-1.6-1.2-2.4-1.8c-0.3-0.3-0.6-0.3-1-0.1c-1.6,0.8-3.3,1.5-5.1,1.8c-1.1,0.2-2-0.1-2.8-0.9c-0.3-0.3-0.3-0.6,0-0.8
		c2.5-1.9,5-3.9,7.7-5.6c1.2-0.8,2.1-0.7,3.2,0.2c2.4,1.9,4.9,3.8,7.2,5.8c3.8,3.3,8.1,5.4,12.9,6.6c5.9,1.5,11.8,3.1,17.7,4.6
		c2.4,0.6,4.7,1.3,7,2.3h0.4c-0.9-0.7-1.8-1.3-2.7-1.8c-3.8-2.2-7.9-3.6-12.2-4.8c-2.4-0.7-4.8-1.3-7.3-2c0.9-0.5,1.7-0.7,2.5-0.9
		c1.9-0.6,3.8-1.1,5.7-1.6c1.9-0.5,2.4-2.6,1-4c-0.2-0.2-0.5-0.4-0.7-0.6c-1.8-1.5-3.7-2.9-5.5-4.3c-0.7-0.5-1.4-1-2.1-1.5
		c-1.7-1.2-3.4-1.1-5.1-0.1c-0.1,0-0.1,0.1-0.2,0.1c-0.1,0-0.1,0.1-0.3,0.2c0.3-0.5,0.5-0.9,0.8-1.3c2-3.2,3.9-6.4,5.5-9.7
		c0.2-0.3,0.3-0.4,0.6-0.2c4.4,2.3,8.9,4.5,13.2,6.9c2.2,1.2,3.7,3.1,5,5.2c2.8,4.6,4.8,9.6,5.7,14.9c1,5.9,0.2,11.5-3.2,16.5
		c-2,3.1-4.7,5.4-8.2,6.8c-2.1,0.8-4.1,0.8-6.1-0.3c-4.3-2.3-8.3-4.9-12.3-7.7C61,95.6,57,92.4,53.7,88.4c-0.7-0.9-1.4-1.7-2.1-2.6
		c-0.2-0.2-0.3-0.3-0.6-0.3c-3.1,0.7-5.8-0.2-8.5-1.5c-1.6-0.8-3.2-1.6-4.9-2c-1.2-0.3-2.4-0.2-3.7,0.2c0.2,0.2,0.4,0.4-0.1,0.5
		c-4.3,1-8.4,2.5-12.2,4.8c-0.7,0.4-1.3,0.9-1.9,1.4c1.5-0.5,2.9-1,4.4-1.4c4.3-1.3,8.6-2.4,13.1-3c0.4-0.1,0.8,0.1,1.1,0.2
		c1.9,0.8,3.8,1.8,5.7,2.6c1.8,0.7,3.7,1.1,5.7,0.9c0.4,0,0.6,0.1,0.9,0.4c0.9,1.2,1.9,2.3,2.9,3.3c0.3,0.3,0.3,0.4,0,0.7
		c-3.8,3-7.8,5.8-11.8,8.5c-2.5,1.6-5,3.2-7.5,4.7c-2.5,1.4-5,1.9-7.7,0.6c-0.7-0.3-1.4-0.7-2-1.1c-4.7-3-7.4-7.4-8.6-12.8
		c-0.9-4.4-0.5-8.8,0.7-13.1s3.1-8.4,5.6-12.1c1.3-1.9,2.9-3.3,4.9-4.4c4.1-2.2,8.3-4.3,12.5-6.5c0.5-0.2,0.6-0.2,0.9,0.3
		c1.7,3.4,3.6,6.7,5.6,9.9C46,66.6,46.2,66.8,46.2,67.1L46.2,67.1z"/>
	<path d="M39.4,31.4c1.3,0.5,2.6,1,4,1.3c2.6,0.6,5.2,1,7.8,1.2c3.8,0.3,7.6,0.2,11.3-0.4c2.5-0.4,5-0.9,7.4-1.8
		c0.9-0.3,0.9-0.3,1,0.6c0.4,4.3,0.4,8.6-0.7,12.9c-0.7,2.9-2,5.4-4.1,7.5c-0.3,0.3-0.3,0.5,0,0.7c0.6,0.4,0.5,0.9,0.2,1.5
		c-3.2,5.7-6.6,11.3-10.6,16.6c-0.4,0.5-0.5,0.5-0.9,0C51.3,67,48.2,62,45.4,57c-0.5-0.8-0.9-1.6-1.4-2.4c-0.2-0.4-0.2-0.6,0.1-0.9
		c0.5-0.4,0.5-0.8,0-1.3c-2.7-2.8-3.9-6.2-4.5-10c-0.5-3-0.4-6.1-0.3-9.1C39.4,32.7,39.4,32.1,39.4,31.4L39.4,31.4z M49,38
		c0.3,0.1,0.5,0.2,0.7,0.3c1,0.4,1.9,0.9,2.8,1.6c0.3,0.2,0.4,0.3,0,0.6c-0.5,0.3-1.1,0.6-1.6,0.8c-1.8,0.6-3.2,0.1-4.2-1.4
		c-0.4-0.5-0.6-1.1-0.8-1.7c-0.2-0.5-1.3-1-1.7-0.8c-0.5,0.2-0.5,0.7-0.6,1.2v0.1c0.1,1,0.1,2.1,0.4,3.1c0.2,0.6,0.5,1.1,1.1,1.4
		c1.5,0.7,3,1.3,4.5,1.8c0.4,0.1,0.7,0.1,1-0.1c0.8-0.4,1.7-0.8,2.5-1.2c1.4-0.7,2.8-0.7,4.2,0c0.8,0.4,1.7,0.8,2.5,1.2
		c0.4,0.2,0.8,0.2,1.2,0.1c1.5-0.5,2.9-1.1,4.4-1.7c0.5-0.2,0.8-0.6,1-1.1c0.4-1.3,0.5-2.6,0.4-3.9c-0.1-0.9-0.5-1-1.3-0.8
		c-0.6,0.1-0.9,0.5-1.1,1.1c-0.5,1.4-1.3,2.6-2.9,2.9c-1.2,0.3-2.3-0.1-3.3-0.7c-0.7-0.4-0.7-0.5,0-1c1-0.7,2-1.2,3.3-1.7
		C57.2,38.6,53.2,38.5,49,38L49,38z"/>
	<path d="M53.7,27.9c-3.2,0-7.8-0.5-12.3-1.8c-1.4-0.4-1.5-0.1-0.8-1.7c2.2-4.5,5.8-7.4,10.6-8.6c5.6-1.4,10.6-0.1,14.9,3.7
		c1.7,1.5,3,3.4,3.9,5.5c0.2,0.5,0.1,0.6-0.4,0.8C64.9,27.3,60.1,27.9,53.7,27.9L53.7,27.9z"/>
	<path class="st0" d="M36.1,34.3c-1-0.1-2.1-0.2-3.1-0.4c-5.2-0.7-10.1-2.2-14.8-4.6c-0.4-0.2-0.5-0.4-0.3-0.8
		c0.7-1.5,1.3-3.1,1.7-4.7c1.2,0.7,2.5,1.4,3.7,1.9C28,27.8,33,29,38.1,29.3c0.4,0,0.6,0.1,0.5,0.6c-0.4,2.8-0.4,5.6-0.3,8.5
		c0,0.5-0.2,0.7-0.7,0.7c-3.2,0.5-6.5,1-9.6,2c-0.4,0.1-0.6-0.1-0.8-0.3c-1.5-1.5-3.5-1.6-5-0.2c-0.6,0.6-1,1.3-1.2,2.2
		c-0.1,0.4-0.2,0.6-0.5,0.8c-0.9,0.7-1.8,1.5-2.6,2.3c-0.2,0.3-0.3,0.2-0.5,0c-1-1.3-2-2.6-3.2-3.8c-0.3-0.4-0.1-0.5,0.2-0.7
		c2-1.8,4.2-3.2,6.8-4.1c3.3-1.2,6.6-1.8,10.1-2.2C32.9,34.7,34.5,34.6,36.1,34.3L36.1,34.3z"/>
	<path d="M24.4,40.5c1.2,0,2,0.4,2.6,1.2c3.2,4.2,6.3,8.4,9.5,12.6c0.3,0.4,0.3,0.6-0.2,0.8c-1.2,0.6-2.4,1.2-3.5,1.9
		c-0.4,0.2-0.5,0.2-0.8-0.1c-1.7-2.2-3.4-4.4-5.1-6.6c-1.4-1.9-2.8-3.7-4.3-5.5c-0.7-0.9-0.8-1.8-0.3-2.8
		C22.8,41,23.6,40.6,24.4,40.5L24.4,40.5z"/>
	<path d="M88.4,43.3c0,0.5-0.2,0.9-0.4,1.3c-3.2,4.1-6.3,8.2-9.5,12.3c-0.3,0.4-0.5,0.4-0.9,0.2c-1.1-0.6-2.2-1.2-3.3-1.8
		c-0.6-0.3-0.5-0.5-0.2-1c2.4-3.1,4.7-6.3,7-9.4c0.8-1,1.5-2.1,2.3-3.1c0.7-1,1.7-1.4,2.9-1.1c1.2,0.3,1.8,1.2,2,2.3
		C88.4,43,88.4,43.2,88.4,43.3L88.4,43.3z"/>
	<path d="M57.3,75.8c2.8-2.2,5.5-4.4,8.2-6.5c0.9-0.7,1.9-0.7,2.9-0.1c1.7,1.1,3.2,2.3,4.8,3.5c0.9,0.7,1.9,1.4,2.8,2.2
		c0.4,0.3,0.4,0.6,0,0.9c-0.8,0.6-1.7,1-2.7,0.8c-1.5-0.4-3-0.9-4.4-1.6c-0.7-0.3-1.2-0.3-1.8,0.2c-0.6,0.5-1.2,0.9-1.8,1.3
		c-0.7,0.5-1.3,1.1-1.5,2c0,0.2-0.1,0.4-0.4,0.3C61.3,78,59.3,77.1,57.3,75.8L57.3,75.8z"/>
</g>
<g>
	<path d="M19.8,123.8l0.6-2.2l3.2-0.3l-1.4,5.4l-7.8,0.6l3.7-14l7.8-0.6l-1.4,5.4l-3.2,0.3l0.6-2.2l-1.3,0.1l-2,7.6L19.8,123.8z"/>
	<path d="M26.4,113.4l7.8-0.6l-3.7,14l-7.8,0.6L26.4,113.4z M30.1,116.2l-1.3,0.1l-2,7.6l1.3-0.1L30.1,116.2z"/>
	<path d="M37.3,126.8l-6.4,0.5l3.7-14l6.1-0.5l1.3,1.2l-2.9,10.9L37.3,126.8z M38.3,116.2l-1.3,0.1l-2,7.6l1.3-0.1L38.3,116.2z"/>
	<path d="M42.9,113.4l7.8-0.6l-0.9,3.2l-4.5,0.4l-0.6,2.2l4.5-0.4l-0.9,3.2l-4.5,0.4l-0.6,2.2l4.5-0.4l-0.9,3.2l-7.8,0.6L42.9,113.4
		z"/>
	<path d="M61.9,118.1l-3.2,0.3l0.6-2.2l-1.3,0.1l-2,7.6l1.3-0.1l0.3-1l-0.6,0.1l0.9-3.2l3.9-0.3l-2,7.3l-7.8,0.6l3.7-14l7.8-0.6
		L61.9,118.1z"/>
	<path d="M63.4,127.1l-3.3,0.3l3.7-14l7.8-0.6l-3.7,14l-3.2,0.3l1-3.9l-1.3,0.1L63.4,127.1z M67.5,116.2l-1.3,0.1l-1,3.8l1.3-0.1
		L67.5,116.2z"/>
	<path d="M71.6,127.1l-3.3,0.3l3.7-14l3.2-0.3L71.6,127.1z"/>
	<path d="M78.5,126.8l-6.4,0.5l3.7-14l6.1-0.5l1.3,1.2l-2.9,10.9L78.5,126.8z M79.6,116.2l-1.3,0.1l-2,7.6l1.3-0.1L79.6,116.2z"/>
	<path d="M84.2,113.4l7.8-0.6l-0.8,3.2l-4.5,0.4l-0.6,2.2l4.5-0.4l-0.8,3.2l-4.5,0.4l-0.6,2.2l4.5-0.4l-0.8,3.2l-7.8,0.6L84.2,113.4
		z"/>
	<path d="M91.9,127.1l-3.3,0.3l3.7-14l7.8-0.6l-3.7,14l-3.2,0.3l2.9-10.8l-1.3,0.1L91.9,127.1z"/>
</g>
</svg>
