<?xml version="1.0" encoding="utf-8"?>
<!-- Generator: Adobe Illustrator 23.0.0, SVG Export Plug-In . SVG Version: 6.00 Build 0)  -->
<svg version="1.1" id="Layer_1" xmlns="http://www.w3.org/2000/svg" xmlns:xlink="http://www.w3.org/1999/xlink" x="0px" y="0px"
	 viewBox="0 0 70.7 99.6" style="enable-background:new 0 0 70.7 99.6;" xml:space="preserve">
<g>
	<path d="M57,17.2c-5.5-5.5-12.8-8.5-20.6-8.5C20.4,8.7,7.3,21.7,7.3,37.8c0,0.3,0,0.7,0,1c0.1,3,0.7,5.9,1.6,8.7
		C14.6,65.9,33,89.1,33.7,90c0.7,0.8,1.7,1.3,2.7,1.3s2-0.5,2.7-1.3c0.8-1,19.1-24.1,24.7-42.5c1-2.8,1.5-5.7,1.6-8.6
		c0-0.4,0-0.7,0-1.1C65.6,30,62.5,22.7,57,17.2z M58.6,38.6c-0.1,2.3-0.5,4.5-1.3,6.7c0,0,0,0.1-0.1,0.2
		c-4,13.1-15.6,29.6-20.9,36.8c-5.3-7.1-16.9-23.7-20.9-36.8c0,0,0-0.1,0-0.2c-0.8-2.1-1.2-4.4-1.3-6.7c0-0.3,0-0.5,0-0.8
		c0-12.3,10-22.2,22.2-22.2c5.9,0,11.5,2.3,15.7,6.5s6.5,9.8,6.5,15.7C58.6,38,58.6,38.3,58.6,38.6z"/>
	<path d="M36.4,21.4c-8.9,0-16.1,7.2-16.1,16.1c0,3.4,1.1,6.6,2.9,9.2c2.9,4.3,7.8,7.1,13.3,7.1c7.2,0,13.3-4.8,15.3-11.3
		c0.5-1.6,0.8-3.3,0.8-5C52.5,28.6,45.3,21.4,36.4,21.4z M36.4,46.6c-4.7,0-8.6-3.6-9-8.1c0-0.2,0-0.5,0-0.7c0-5,4.1-9.1,9.1-9.1
		c4.3,0,8,3,8.9,7.1c0.1,0.6,0.2,1.2,0.2,1.8C45.5,42.5,41.4,46.6,36.4,46.6z"/>
</g>
</svg>
