<?xml version="1.0" encoding="UTF-8" standalone="no"?>
<!-- Generator: Adobe Illustrator 23.0.0, SVG Export Plug-In . SVG Version: 6.00 Build 0)  -->

<svg
   version="1.1"
   id="Layer_1"
   x="0px"
   y="0px"
   viewBox="0 0 392 392"
   xml:space="preserve"
   sodipodi:docname="Barron On.svg"
   inkscape:version="1.3.2 (091e20e, 2023-11-25, custom)"
   width="392"
   height="392"
   xmlns:inkscape="http://www.inkscape.org/namespaces/inkscape"
   xmlns:sodipodi="http://sodipodi.sourceforge.net/DTD/sodipodi-0.dtd"
   xmlns="http://www.w3.org/2000/svg"
   xmlns:svg="http://www.w3.org/2000/svg"><defs
   id="defs7" /><sodipodi:namedview
   id="namedview7"
   pagecolor="#ffffff"
   bordercolor="#000000"
   borderopacity="0.25"
   inkscape:showpageshadow="2"
   inkscape:pageopacity="0.0"
   inkscape:pagecheckerboard="0"
   inkscape:deskcolor="#d1d1d1"
   inkscape:zoom="1.3997446"
   inkscape:cx="587.9644"
   inkscape:cy="196.1072"
   inkscape:window-width="2560"
   inkscape:window-height="1351"
   inkscape:window-x="-9"
   inkscape:window-y="-9"
   inkscape:window-maximized="1"
   inkscape:current-layer="Layer_1" />
<style
   type="text/css"
   id="style1">
	.st0{fill:#F6DDB4;}
</style>





<path
   class="st0"
   d="m 308.98394,152.38376 c -34,-8.7 -49.3,10.7 -52.3,15.1 v -17.9 h -16.9 v 113.3 h 16.8 v -62.4 c 0,0 6.2,-32.4 34.2,-32.5 0.3,0 0.7,0 1,0 28.8,0.7 30.8,15.6 34.2,32.5 v 62.4 h 16.9 v -62.4 c 0,0.1 4.3,-38.3 -33.9,-48.1 z"
   id="path6"
   inkscape:export-filename="RedBarroon.svg"
   inkscape:export-xdpi="65.389999"
   inkscape:export-ydpi="65.389999" />
<path
   class="st0"
   d="m 237.68394,131.38376 -11.9,-11.4 -25.5,25.5 c 0,0 0,-0.1 -0.1,-0.1 l -4.1,4.2 -9.4,9.4 c 0,0.1 0.1,0.2 0.1,0.3 v 0 c 1.1,2.7 2,5.6 2.7,8.5 0,0 0,0 0,0 0.1,0.5 0.2,0.9 0.3,1.4 0.1,0.6 0.3,1.2 0.4,1.8 0.7,3.9 1.1,7.8 1.1,11.9 0,35.5 -28.8,64.3 -64.3,64.3 -35.499998,0 -64.299998,-28.8 -64.299998,-64.3 0,-35.5 28.8,-64.3 64.299998,-64.3 9.5,0 18.5,2.1 26.6,5.7 l 13.3,-13.9 c -0.1,-0.1 -0.3,-0.1 -0.4,-0.2 l 24.1,-24.000001 -12.9,-12.4 -28.2,29.400001 c -7.5,-2.2 -15.3,-3.400001 -23.5,-3.400001 -45.999998,0 -83.199998,37.300001 -83.199998,83.200001 0,46 37.3,83.2 83.199998,83.2 45.9,0 83.2,-37.3 83.2,-83.2 0,-6.7 -0.8,-13.3 -2.3,-19.6 z"
   id="path7" />
</svg>
